<svg id="Layer_1" data-name="Layer 1" xmlns="http://www.w3.org/2000/svg" viewBox="0 0 1920 1920"><defs><style>.cls-1{fill:#a01d21;}</style></defs><path class="cls-1" d="M977.9,1532h0l-.87-1.31Z"/><path class="cls-1" d="M946.85,1517.58c.71,1.22,1.39,2.38,2.06,3.51C948.24,1520,947.56,1518.8,946.85,1517.58Z"/><path class="cls-1" d="M874.75,1533.87h0c-.88-1.58-1.76-3.15-2.62-4.74C873,1530.73,873.87,1532.3,874.75,1533.87Z"/><path class="cls-1" d="M865.23,1515.85q-1.8-3.63-3.61-7.51Q863.44,1512.23,865.23,1515.85Z"/><path class="cls-1" d="M868.77,1522.86q-1.75-3.39-3.54-7Q867,1519.47,868.77,1522.86Z"/><polygon class="cls-1" points="977.9 1531.97 977.9 1531.97 977.89 1531.97 977.9 1531.97"/><path class="cls-1" d="M980.08,1525.46c-.32-.5-.63-1-1-1.45.32.47.63,1,1,1.44Z"/><path class="cls-1" d="M983.86,1531.18h0l.17-.5C984,1530.85,983.92,1531,983.86,1531.18Z"/><path class="cls-1" d="M980.09,1525.46h0l.3-.86C980.28,1524.88,980.19,1525.17,980.09,1525.46Z"/><polygon class="cls-1" points="874.75 1533.88 874.75 1533.88 874.75 1533.88 874.75 1533.88"/><path class="cls-1" d="M953.32,1528.45c-1.39-2.28-2.85-4.72-4.41-7.36,1.56,2.64,3,5.09,4.43,7.38Z"/><path class="cls-1" d="M948.23,1530.49c-1.27-2.08-2.58-4.28-4-6.66C945.65,1526.21,947,1528.41,948.23,1530.49Z"/><path class="cls-1" d="M942.17,1520.28c-3.95-6.89-8.15-14.33-12.11-22C934,1506,938.22,1513.39,942.17,1520.28Z"/><path class="cls-1" d="M875.88,1524.72l-.28-.53c.09.18.19.35.28.52Z"/><path class="cls-1" d="M859.1,1502.9c.25.56.51,1.1.76,1.65-.26-.55-.51-1.1-.76-1.66Z"/><path class="cls-1" d="M861.62,1508.34c-.59-1.24-1.17-2.51-1.76-3.79C860.45,1505.83,861,1507.1,861.62,1508.34Z"/><path class="cls-1" d="M885.69,1498.11c-1.23,6.33-2.33,12.7-3.28,19C883.36,1510.81,884.46,1504.44,885.69,1498.11Z"/><path class="cls-1" d="M880.33,1532.75c.07-.64.15-1.27.23-1.91-.08.64-.15,1.28-.23,1.92Z"/><path class="cls-1" d="M875.88,1524.72h0a.52.52,0,0,1,0-.11S875.89,1524.68,875.88,1524.72Z"/><path class="cls-1" d="M884.74,925.11c-23.7,35.68-32.1,101.76-27.29,144,4.46,35.9,20.68,69.2,35.67,101.91,33.86,70,42.54,138.09-8.16,202.34-32,41.14-55.29,80-59.68,133.06-15-38.58-10.9-82.48,6-119.8,19-42.16,48.57-81.58,38-129.54-10.89-61.64-50.76-121-44.63-187.16C829.53,1022.33,847.07,956.69,884.74,925.11Z"/><path class="cls-1" d="M880.68,884.62C824.24,940,818.52,987.18,808,1061.79c-12.66,71.46-46.72,143.93-115.15,176.78,26.36-47.58,48-96.41,57.68-150,9.74-37.78,13.3-76.94,28.32-114.35C796.66,930.88,834.39,894.47,880.68,884.62Z"/><path class="cls-1" d="M803.58,1127.78c61.95,78.46,30.85,174.68-2.58,257.58-31.18,78.63-49.86,164.05-32.72,248.12-47.66-81.84-33.26-184.39-.83-269.1C797.92,1285.93,830,1213,803.58,1127.78Z"/><path class="cls-1" d="M1008.17,1554.54c-30-28.31-44.82-69.65-57.69-108-16.64-47-15.47-97.87-7.54-146.44,6-42.35,12.19-84.56-2.75-125.75-31-77-74.55-150.32-37.27-236.47-1.35,124.5,76.46,162.18,94.77,263.47,4,28.87,1.72,58.51-3.68,87-8.69,44.15-21.25,88.11-19,133.36.52,19.47,4.19,38.82,8,57.91C989,1505.09,994.36,1532,1008.17,1554.54Z"/><path class="cls-1" d="M704.85,1144c-94.21,160.26,58.41,210.2-16.44,334.61-27.84,45.16-78.13,70.79-94.61,121.91-17.32-73.33,66.89-122.23,65.5-192.62.17-37.69-19.9-72-21.49-109.75C635.23,1248.26,664.07,1173.85,704.85,1144Z"/><path class="cls-1" d="M736,1371.68c-32.57-29.06-26.51-80.3-5.23-114.16,20.9-32.15,42.84-43.77,53.29-84.3C817.63,1241.91,731.17,1275.61,736,1371.68Z"/><path class="cls-1" d="M1018.81,1286c-5.15,35.55,7.48,71.92,19.84,104.84,53,129.39,215.24,122.17,175.92,309.33-6.76,35.1-13.12,70.86-.09,105.23-46.61-46.54-23.13-118.86-35-176.27-20.2-84.56-122.56-115.05-150.8-199.58C1014,1386.23,1001.25,1329.83,1018.81,1286Z"/><path class="cls-1" d="M1099.39,1808.59c-92.39-62.15-61.22-131.1-66.4-222.75-5.36-51.06-25.6-99.27-36.59-149.41,47.67,49.87,84,117.35,78.48,188.12C1067.69,1714,1056.36,1725.16,1099.39,1808.59Z"/><path class="cls-1" d="M1126,1805c.61-32.72,8.46-66.12,7.29-98.4.23-33.43-21.43-56-32.93-86.32-8.77-23.16-7.48-50.4,5.38-71.7,3.22,53,28.73,66.25,51,108.23C1179.6,1707,1156,1763.5,1126,1805Z"/><path class="cls-1" d="M923.33,1381.17c-51,89.88-25.44,125.8,2.51,214.63,21.2,75.68,18,150.53-38.9,210.12,14.17-67.31,13.61-118.59-6.52-184.35-7.22-32-20.18-62.74-24.95-95.54C845.93,1469.52,873.37,1409.05,923.33,1381.17Z"/><path class="cls-1" d="M938.55,1472.78c-18.37,102.64,94.19,99.82,61.72,203.54-17.81,49.93-22.77,67-12.12,119.8-40.15-43.69-32.4-86.32-17.14-138.34,5.21-20.77.41-40.84-12.08-58.31C932,1564.5,914.42,1513.91,938.55,1472.78Z"/><path class="cls-1" d="M751.11,1799c-47.15-15.71-76.68-68.39-64-117,10.75-42.09,38.19-75,21.92-119.61,30.29,21.59,30.74,65.38,20.73,97.58-4,15.54-7.88,27.83-8.67,42.67C717.81,1737.59,735.43,1768.67,751.11,1799Z"/><path class="cls-1" d="M712.4,1451.5c30.41,66.39-18.49,112.71-58.81,159.17-17,18.69-23.3,42.74-25.5,67.56-4,53.16-17.09,96.3-66.94,123.49,29.9-67.91,20.11-73.4,26.48-140.83,3.34-28.57,16.76-57.3,38.94-76.25C675.36,1542.82,721.41,1527.33,712.4,1451.5Z"/><path class="cls-1" d="M828.83,1805.82c-19.82-17.31-27.57-44.82-33.68-69.62-5.94-26.22.82-53.81,7.55-78.84,4.2-17.34,7.84-34.08,2.9-51.77-13.93-40.72-35.53-86.77-5.5-127.6-3.78,48.6,23.77,74.64,41,116.14,20.32,49.93-19.07,96.76-22.74,145.48C818.47,1761.7,819.61,1785.41,828.83,1805.82Z"/><path class="cls-1" d="M580.1,1123.18c58.62-59.92,14.62-145.54,37.26-217.61,22.27-80.44,111.3-143.85,194.09-112.42-50.4,14.68-98.13,40.18-129.92,82.78C615.41,948.63,677.07,1070.54,580.1,1123.18Z"/><path class="cls-1" d="M635.57,1408.22c-33.31-46.85-62.43-104.37-51.31-163.53,2.64-34.84,16.58-68.43,35.34-97.3,13.32-22.28,25.26-45.4,29.78-71.23,9.22-69.28,6.79-152.22,63.88-202.46-22.07,54.92-16.22,113.33-14,171.39,3.78,105.78-49.86,123.55-88.1,205.42C594.41,1303.52,615.6,1359,635.57,1408.22Z"/><path class="cls-1" d="M704.85,1105.91c25.5-53.7,12.66-113.42,14.58-170.65-.77-65.73,52.39-124,118.92-124.93-31.57,25.18-63.77,52-78.12,90.5C733.27,967.12,756.58,1048.46,704.85,1105.91Z"/><path class="cls-1" d="M844.81,846.13c8.88,32.66-33.91,48.19-51.46,68.23-12.23,11.83-20.67,25.76-30,40.19-6.25-25.64,6.08-53.21,26.39-69.16C807.89,868.46,833,868.32,844.81,846.13Z"/><path class="cls-1" d="M1139,899.68a233.17,233.17,0,0,0,80.32-50.55c-22.56-22.82-23-57.19-36.11-84.47-13.24-23.85-38-36.17-55.4-57.41-18.29-23.64-32.35-54-33.28-84.22,20.38,93.48,101.59,83.11,112.26,168.5,2.61,19.35,5.73,37.92,14.83,55.39a275.24,275.24,0,0,0,21.06-23c-27.79-30.13-26.63-73.4-46.8-107.36,33.31,20.17,35.43,66.73,55,97,6.26-9.85,16.55-20.64,19.32-31.41-11.32-21-22.46-44.21-23.21-68.41,5.09,21.52,16.39,41.77,29.23,59.58,13.76-18.83,2.06-23.27-6.52-40.56-6.81-11.82-12.22-25.51-17.61-37.44-10.57-24.7-29.29-44-52.9-56.89,52.67,6,71.85,59.09,92.72,99.88,36.85-67.65-91.7-82.3-80.38-183q-11.15-3.13-22.55-5.39c20.2,39,15.37,63.74,52.28,98.93-74.55-29.38-47.22-106.46-81.77-103.24,26.74,36.84,21.71,85.47,47,123-15.07-13.59-25.2-32.18-32.08-51.13-9.55-23.1-17.5-72.18-46.89-73.28,15.86,23.5,12.19,54,25,78.39,16.51,30.11,48.39,46,69.69,73,17.88,24.13,33.67,55.55,30.33,86.1-13.28-90.69-94.69-97.1-120.45-164.74-8.57-24.1-1.53-48.88-9.39-72.7-8.48.21-16.92.76-25.27,1.67,5.06,12.88,13,25.23,20.91,36.68a90,90,0,0,1-31.49-35.34,280.62,280.62,0,0,0-30.56,6.18c45.33,10.85,61.82,58.54,82,94.87,12.43,23.71,30.55,43.9,50.2,62-71.47-26.87-71.17-87-111.25-135.06a117.74,117.74,0,0,0-26-20.42,233,233,0,0,0-83.85,43c-12.4,10-22.2,22.66-36.15,30.59-19,10.83-71.26,20.67-93.93,33.56-52.41,30.79-19.34,90.71,27.85,90.11-9.07-1.52-58.85-3.5-64.12,4.26,23.68-12,139.1,191,116.7,205.24,9.5-.7,33-44.25,36.45-52.92-24.47,40.09,9.65,99.39,63.2,70C1061,948.75,1084.85,908,1139,899.68ZM855.32,711.24c-17.9-31.49,54.25-36.55,79.79-51.45,0,0-11,52.25-20.54,57.7S870.17,737.35,855.32,711.24ZM984.23,937.93c-14.85-26.11,15.34-48.66,24.92-54.11s60.1,11.85,60.1,11.85C1043.38,910,1002.13,969.42,984.23,937.93Z"/><path class="cls-1" d="M1241.57,565.64q-9.81-4-20-7.3c3.32,69.48,55.43,84.15,82.07,139.55q1.86-8.67,3.17-17.44C1373.69,726.21,1236.41,484.78,1241.57,565.64Z"/><path class="cls-1" d="M237.86,1787.91H441.51q9.17,0,12.17-2.9t3-8.94q0-15.18-1.34-33.49t-3.57-35.84q-2.22-17.54-4.91-32.49a168.16,168.16,0,0,0-5.58-23.45h19.87v154.75H237.86Z"/><path class="cls-1" d="M233.39,1524a112.39,112.39,0,0,1,8.38-43.32,107.72,107.72,0,0,1,23.55-35.51,110.84,110.84,0,0,1,36.63-24q21.44-8.81,47.56-8.82t47.56,8.82a110.8,110.8,0,0,1,36.62,24,107.6,107.6,0,0,1,23.56,35.51,116.16,116.16,0,0,1,0,86.64,106.37,106.37,0,0,1-23.56,35.39,111.46,111.46,0,0,1-36.62,23.89q-21.43,8.82-47.56,8.82T302,1626.58a111.5,111.5,0,0,1-36.63-23.89,106.5,106.5,0,0,1-23.55-35.39A112.46,112.46,0,0,1,233.39,1524Zm116.12,93.56q25,0,45.66-7.37t35.29-20.1a90.21,90.21,0,0,0,22.66-29.7,86.64,86.64,0,0,0,0-72.9,89.9,89.9,0,0,0-22.66-29.81q-14.62-12.73-35.29-20.1t-45.66-7.37q-25.23,0-45.78,7.37a108.88,108.88,0,0,0-35.17,20.1,89.9,89.9,0,0,0-22.66,29.81,86.64,86.64,0,0,0,0,72.9,90.21,90.21,0,0,0,22.66,29.7,108.88,108.88,0,0,0,35.17,20.1Q324.28,1617.54,349.51,1617.54Z"/><path class="cls-1" d="M461.16,1366.53H237.86v-18.31q48.22-33.93,97.8-69.11t103.62-73.35c2.23-1.64,3.35-3,3.35-4.25q0-2.67-5.81-2.23l-199,13.4v-18.76h223.3v17.87q-25,17.64-48.57,34.38t-47.67,33.95q-24.12,17.19-49.91,35.5t-55.27,39.08q-3.35,2.23-3.35,4.24,0,2.68,5.81,2.23l199-13.39Z"/><path class="cls-1" d="M233.39,1036.71a165.89,165.89,0,0,1,2.79-30.26,115.29,115.29,0,0,1,8.27-27A59.67,59.67,0,0,1,258.07,960a27,27,0,0,1,18.87-7.48,14,14,0,0,1,7.25,1.56,11,11,0,0,1,3.69,3.35,9.85,9.85,0,0,1,1.34,5.14,43.19,43.19,0,0,0-18.54,7.7,71.59,71.59,0,0,0-16.52,16.3,84.51,84.51,0,0,0-11.84,22.89,86,86,0,0,0,3.58,63.64,90.21,90.21,0,0,0,22.66,29.7,108.88,108.88,0,0,0,35.17,20.1q20.55,7.36,45.78,7.37,25,0,45.66-7.37t35.29-20.1a90.21,90.21,0,0,0,22.66-29.7,83.9,83.9,0,0,0,8-36.39,80.6,80.6,0,0,0-3.13-20.77,86.29,86.29,0,0,0-9.15-21.77,61.88,61.88,0,0,0-14.74-17.09,30.78,30.78,0,0,0-19.65-6.92H340.13V951h97.14q6.25,4,11.38,12.61a100.48,100.48,0,0,1,8.94,20.1,157.18,157.18,0,0,1,5.91,25.12,180.49,180.49,0,0,1,2.13,27.92,112.65,112.65,0,0,1-8.38,43.32,106.37,106.37,0,0,1-23.56,35.39,111.46,111.46,0,0,1-36.62,23.89q-21.43,8.84-47.56,8.82T302,1139.31a111.5,111.5,0,0,1-36.63-23.89A106.5,106.5,0,0,1,241.77,1080,112.46,112.46,0,0,1,233.39,1036.71Z"/><path class="cls-1" d="M234.75,781.47l3.41-17.54,115.29,22.46a87.88,87.88,0,0,1-17.57-40.62,128.42,128.42,0,0,1,.67-45.48,126.4,126.4,0,0,1,8.88-28.08A100.14,100.14,0,0,1,360,648.89L264.2,630.23l3.42-17.53L486.8,655.38l-3.41,17.54L377.74,652.34a18.82,18.82,0,0,0-11.23,1,24.38,24.38,0,0,0-9.12,7.1,48.15,48.15,0,0,0-7,11.84,77.55,77.55,0,0,0-4.61,15.48,120.32,120.32,0,0,0-1.57,32,116.06,116.06,0,0,0,7.24,32.92,80.93,80.93,0,0,0,16.89,27.17,49.74,49.74,0,0,0,27.38,14.78l61.59,12-3.42,17.54Z"/><path class="cls-1" d="M500.56,619.81,372.62,433.49l-11.26-2.35,11.51-15.93,239.34,50L600.7,481.14l-39.05-8.09a50.56,50.56,0,0,0-20.33-.08A77,77,0,0,0,521,479.92a95.39,95.39,0,0,0-18.07,11.87A80.91,80.91,0,0,0,489,506.52,68.68,68.68,0,0,0,475.85,548q0,4.65,2.91,11a54.69,54.69,0,0,0,6.38,10.81l26.92,34Zm-35.89-87.62a52.5,52.5,0,0,1,3.67-14.42,62.34,62.34,0,0,1,7-12.57,78.46,78.46,0,0,1,23.8-21.51,117.12,117.12,0,0,1,30.48-12.83q10.14-2.6-.13-4.78L391.13,437.22c-3.32-.75-5.41-.51-6.28.69s-.21,3.34,2,6.4L457.7,534.6q4,4.8,5.54,2.62C463.77,536.5,464.24,534.83,464.67,532.19Z"/><path class="cls-1" d="M512,269.32l14.15-10.91,136.4,176.8-14.14,10.91Z"/><path class="cls-1" d="M626.62,189.77l96-36.41q20-7.61,35.09-6t25.73,8A57.15,57.15,0,0,1,800.77,171a76.5,76.5,0,0,1,9.6,17.13,76,76,0,0,1,4.1,19,57.53,57.53,0,0,1-2.56,23.18q-3.72,11.92-13.94,23.07t-30.18,19l-6.06,2.29q-4.8,1.83-3.72,3.09t5.94,2.76a118,118,0,0,1,24.82,11.61q13.43,8,30.77,19.14a198.58,198.58,0,0,0,29.58,15.65q14.77,6.22,23.69,8.33l-23.59,8.95a75.59,75.59,0,0,1-19.86-7q-10.89-5.43-22.42-12.52T783.84,310q-11.58-7.55-22.09-13.23a113,113,0,0,0-19.47-8.51q-8.94-2.81-15.21-.44l-18.58,7.05-1.59-4.18,40.93-15.51q31.53-12,42-32.88t.72-46.6Q780.81,170,759.1,161.28t-53.22,3.22l-50.11,19c-3.76,1.42-6.26,3.25-7.49,5.46s-.76,6.18,1.41,11.89q.46,1.25,3.79,10T662,233.32q5.19,13.68,11.78,30.76t13.33,34.83q15.66,41.34,35.38,93.33l-16.71,6.33Z"/><path class="cls-1" d="M1021.58,111.41l69.14,14.12a102.69,102.69,0,0,1,67.41,46,106.34,106.34,0,0,1,14.83,39,121.53,121.53,0,0,1-1.08,45.48,121.55,121.55,0,0,1-16.83,42.26,106.56,106.56,0,0,1-28.94,30.1,102.83,102.83,0,0,1-80,15.91L976.92,330.2Zm-15.11,221.41,6.24,1.27c2.41.49,4.84,1,7.31,1.61s4.86,1.1,7.19,1.58l5.69,1.16q26,5.31,46.58-.41A92.93,92.93,0,0,0,1115,319.65a103.19,103.19,0,0,0,24.58-30.54,134.72,134.72,0,0,0,13.46-36.9,133,133,0,0,0,2-39,102.55,102.55,0,0,0-10.71-37.4,91.34,91.34,0,0,0-25.57-30.51q-16.69-13.09-42.73-18.41l-5.69-1.16c-2.33-.48-4.75-.93-7.24-1.37s-5-.89-7.35-1.38l-6.24-1.27c-3.36-.69-6.12-.53-8.3.47s-3.92,3.57-5.22,7.7q-.77,3.73-3.48,17.07t-6.48,31.73q-3.75,18.38-8.15,39.36t-8.37,40.45q-4,19.47-7.1,34.79t-4.56,22.31c-1.22,6-1.08,10.15.42,12.51S1002.54,332,1006.47,332.82Z"/><path class="cls-1" d="M1380,243.21a112.51,112.51,0,0,1,30.46,31.92,107.76,107.76,0,0,1,15.3,39.77,110.69,110.69,0,0,1-1.65,43.76q-5.22,22.57-20.36,43.88T1369,436.2a110.67,110.67,0,0,1-40.78,15.95,107.72,107.72,0,0,1-42.58-1.36A116.23,116.23,0,0,1,1215,400.6a106.49,106.49,0,0,1-15.21-39.7,111.55,111.55,0,0,1,1.74-43.69q5.22-22.59,20.36-43.89t34.74-33.66a111.51,111.51,0,0,1,40.69-16,106.36,106.36,0,0,1,42.49,1.3A112.49,112.49,0,0,1,1380,243.21Zm-143.53,40.46Q1222,304.05,1216,325.16T1212,365.57a90.44,90.44,0,0,0,11.08,35.67,83.87,83.87,0,0,0,25,27.64,84.75,84.75,0,0,0,34.42,14.6,90.17,90.17,0,0,0,37.43-1.21,108.85,108.85,0,0,0,36.81-17.12q18-12.57,32.46-33,14.63-20.56,20.51-41.58a108.91,108.91,0,0,0,4-40.31,90,90,0,0,0-11.17-35.75,86.71,86.71,0,0,0-59.43-42.23,90.3,90.3,0,0,0-37.34,1.28,109,109,0,0,0-36.76,17Q1251.09,263.12,1236.48,283.67Z"/><path class="cls-1" d="M1349.62,513.16l193.73-111,9.11,15.88q-25,53.44-50.48,108.61t-53.41,115.16c-1.13,2.53-1.39,4.32-.8,5.35q1.34,2.32,6.15-1l165.95-110.57,9.33,16.27-193.73,111-8.89-15.49q12.93-27.75,25-54t24.48-53.16q12.36-26.91,25.64-55.62t28.51-61.39c1.2-2.4,1.46-4.19.8-5.35q-1.33-2.32-6.15.95L1359,529.44Z"/><path class="cls-1" d="M1651.44,613.7q1.9,6-1.5,10.33t-10.42,6.62a38.72,38.72,0,0,1-20.24.49,26.56,26.56,0,0,1-9.24-4.31,15.71,15.71,0,0,1-5.76-8.12l2.13-.68a11.06,11.06,0,0,0,4.37,6,20,20,0,0,0,7.07,3,26.17,26.17,0,0,0,7.9.52,23.28,23.28,0,0,0,6.69-1.44,13.47,13.47,0,0,1-3.33-5.26q-1.77-5.54.86-9.42a12.56,12.56,0,0,1,15.31-4.9Q1649.68,608.17,1651.44,613.7Z"/><path class="cls-1" d="M1648.35,674l19.76-2.14,18.5,170.94L1666.85,845a114.36,114.36,0,0,0,4-17.28q1.61-10,2.78-19.95t1.53-18a86.15,86.15,0,0,0,0-11.23q-.64-6-4-8.56t-12.41-1.58l-202.47,21.92-1.92-17.76,202.47-21.92q9.11-1,11.79-4.19t2-9.21a87.42,87.42,0,0,0-2.42-11q-2.09-7.85-5.35-17.27t-7-18.9A114.58,114.58,0,0,0,1648.35,674Z"/><path class="cls-1" d="M1686,1082.16a166,166,0,0,1-2.79,30.26,115.44,115.44,0,0,1-8.27,27,59.48,59.48,0,0,1-13.62,19.42,27,27,0,0,1-18.87,7.48,14,14,0,0,1-7.25-1.56,10.9,10.9,0,0,1-3.69-3.35,9.82,9.82,0,0,1-1.34-5.14,43.14,43.14,0,0,0,18.54-7.7,71.39,71.39,0,0,0,16.52-16.3,84.51,84.51,0,0,0,11.84-22.89,86,86,0,0,0-3.58-63.64,90.31,90.31,0,0,0-22.66-29.7q-14.62-12.73-35.17-20.1t-45.78-7.37q-25,0-45.66,7.37t-35.29,20.1a90.31,90.31,0,0,0-22.66,29.7,83.94,83.94,0,0,0-8,36.4,80.36,80.36,0,0,0,4.24,25.79,116.83,116.83,0,0,0,11.06,23.78,120.87,120.87,0,0,0,15.63,20.43,123.44,123.44,0,0,0,18,15.75h-25q-6.26-4-11.38-12.62a100.22,100.22,0,0,1-8.94-20.1,157.18,157.18,0,0,1-5.91-25.12,180.46,180.46,0,0,1-2.12-27.91,112.57,112.57,0,0,1,8.37-43.32,106.32,106.32,0,0,1,23.56-35.4,111.46,111.46,0,0,1,36.62-23.89q21.44-8.82,47.56-8.82t47.56,8.82a111.5,111.5,0,0,1,36.63,23.89,106.44,106.44,0,0,1,23.55,35.4A112.39,112.39,0,0,1,1686,1082.16Z"/><path class="cls-1" d="M1458.27,1203.42l212.81,76.14,10.49-4.69v19.65l-223.3,99.6v-19.66l36.4-16.3a50.55,50.55,0,0,0,16.52-11.83,76.64,76.64,0,0,0,12.4-17.53,95.21,95.21,0,0,0,7.7-20.21,81.11,81.11,0,0,0,2.68-20.1,70.46,70.46,0,0,0-3.24-21.1,69.74,69.74,0,0,0-10.38-20.21q-2.68-3.79-8.82-7.25a55.2,55.2,0,0,0-11.5-5l-41.76-11.83Zm80.39,50a52.06,52.06,0,0,1,5.47,13.84,62.23,62.23,0,0,1,1.67,14.29,78.66,78.66,0,0,1-6.69,31.38,117.08,117.08,0,0,1-17.2,28.24q-6.69,8,2.9,3.8l129.07-57.61q4.69-2,4.69-4.25c0-1.48-1.78-2.83-5.36-4l-110.31-31.7c-4-1.05-6-.67-6,1.11C1536.87,1249.42,1537.47,1251.05,1538.66,1253.44Z"/><path class="cls-1" d="M1681.57,1432.74v102.72q0,21.43-6.81,35t-16.63,21.21a57.55,57.55,0,0,1-20.77,10.61,65.77,65.77,0,0,1-38.63,0,57.39,57.39,0,0,1-20.77-10.61q-9.82-7.71-16.64-21.21t-7-35V1529q0-5.15-1.56-4.58c-1,.37-2.61,1.89-4.69,4.58a118.21,118.21,0,0,1-19.65,19.09q-12.29,9.7-28.81,22a198.44,198.44,0,0,0-25.12,22.11q-11.06,11.61-16.19,19.2v-25.23a75.57,75.57,0,0,1,13.62-16.08q8.92-8.27,19.65-16.52t21.89-16.41q11.16-8.16,20.21-16a113,113,0,0,0,14.84-15.18q5.8-7.38,5.81-14.07V1472h4.47v43.77q0,33.72,15.85,50.91t43.32,17.2q27.46,0,43.32-17.2t15.86-50.91v-53.59q0-6-2.46-8.94t-11.61-2.9h-34.73q-14.62,0-32.93.11t-37.29.12h-99.82v-17.87Z"/><path class="cls-1" d="M1681.57,1808.59H1661.7a176.6,176.6,0,0,0,5.69-23.45q2.79-15,4.92-32.49t3.46-35.84q1.34-18.32,1.34-33.5,0-6-3-8.93t-12.17-2.9h-70.56a10.4,10.4,0,0,0-11.17,11.16V1786.7h-18.75q2.44-9.83,4.8-23.78t4.24-28.69q1.89-14.74,3.13-28.36t1.22-23a13,13,0,0,0-2.34-8.16c-1.56-2-4.06-3-7.48-3l-87.09-.22q-9.15,0-12.17,2.9t-3,8.93q0,15.18,1.34,33.5t3.57,35.84q2.24,17.52,4.91,32.49a168.52,168.52,0,0,0,5.58,23.45h-19.87V1653.84h223.3Z"/></svg>